<svg viewBox="0 0 100 100" class="gear">
	<circle cx="50" cy="50" r="25" class="gear-wheel" />
	<polygon points="60,25 55,12.5 45,12.5 40,25" class="gear-tooth" />
	<polygon points="60,25 55,12.5 45,12.5 40,25" class="gear-tooth" />
	<polygon points="60,25 55,12.5 45,12.5 40,25" class="gear-tooth" />
	<polygon points="60,25 55,12.5 45,12.5 40,25" class="gear-tooth" />
	<polygon points="60,25 55,12.5 45,12.5 40,25" class="gear-tooth" />
	<polygon points="60,25 55,12.5 45,12.5 40,25" class="gear-tooth" />
	<polygon points="60,25 55,12.5 45,12.5 40,25" class="gear-tooth" />
	<polygon points="60,25 55,12.5 45,12.5 40,25" class="gear-tooth" />
</svg>